<?xml version="1.0" standalone="no"?>
<!DOCTYPE svg PUBLIC "-//W3C//DTD SVG 1.1//EN" "http://www.w3.org/Graphics/SVG/1.1/DTD/svg11.dtd" >
<!--
2013-9-30: Created.
-->
<svg>
<metadata>
Created by iconfont
</metadata>
<defs>

<font id="iconfont" horiz-adv-x="1024" >
  <font-face
    font-family="iconfont"
    font-weight="500"
    font-stretch="normal"
    units-per-em="1024"
    ascent="896"
    descent="-128"
  />
    <missing-glyph />
    
    <glyph glyph-name="baocun" unicode="&#58939;" d="M844.8 800H179.2c-30.6 0-55.5-24.8-55.5-55.5v-721.1c0-30.6 24.8-55.5 55.5-55.5h665.6c30.6 0 55.5 24.8 55.5 55.5V744.5c0 30.7-24.9 55.5-55.5 55.5zM317.9 467.2h388.3c30.6 0 55.5 24.8 55.5 55.5V744.5h83.2v-721.1H179.2V744.5h83.2v-221.9c0-30.6 24.8-55.4 55.5-55.4z m0 55.5V744.5h388.3v-221.9H317.9v0.1zM706.1 300.8H317.9c-15.3 0-27.7-12.4-27.7-27.7 0-15.3 12.4-27.7 27.7-27.7h388.3c15.3 0 27.7 12.4 27.7 27.7 0 15.3-12.4 27.7-27.8 27.7z"  horiz-adv-x="1024" />

    
    <glyph glyph-name="-logoquery" unicode="&#58884;" d="M486.4 182.39999999999998l-54.144 29.952-14.08 7.808-17.28 10.24v-80.256l95.36-55.68a30.848 30.848 0 0 1 31.488 0L585.856 128l-96 52.864z m265.344 360.704l-224 131.072a31.488 31.488 0 0 1-31.488 0l-224-131.072A33.152 33.152 0 0 1 256 514.304v-260.608a33.28 33.28 0 0 1 16.256-28.8l49.024-28.672V455.168a57.856 57.856 0 0 0 29.184 51.2L486.4 581.248a52.224 52.224 0 0 0 51.2 0l136.192-75.392a57.856 57.856 0 0 0 29.184-51.2V308.48a57.856 57.856 0 0 0-29.184-51.2l-75.776-41.856 71.808-38.4 82.048 48A33.28 33.28 0 0 1 768 253.69600000000003V514.304a33.152 33.152 0 0 1-16.256 28.8z m-147.2-144v35.328c0 16.64-21.12 35.328-41.472 35.328H428.032c-9.728 0-10.496-1.024-10.496-8.832V293.12h62.336v70.656h41.6L563.2 293.12h62.336l-41.6 70.656c18.816 1.536 20.608 19.456 20.608 35.328z m-62.336 0c0-11.136-7.04-17.664-20.736-17.664h-41.6v62.336c0 4.736 5.632 8.32 11.136 8.32h30.464c13.696 0 20.736-6.272 20.736-17.664z"  horiz-adv-x="1024" />

    
    <glyph glyph-name="-imgquery" unicode="&#58885;" d="M744.96 601.6H279.04a42.112 42.112 0 0 1-42.24-41.984v-351.232a43.008 43.008 0 0 1 1.024-9.088 16.64 16.64 0 0 0 1.024 2.176l104.576 179.2 57.088 98.176a24.448 24.448 0 0 0 33.28 8.96 23.808 23.808 0 0 0 10.368-11.52l78.08-134.272 47.616 82.048a24.448 24.448 0 0 0 44.928-6.272l85.12-128a24.064 24.064 0 0 0-8.96-33.152 24.576 24.576 0 0 0-33.408 8.96l-67.072 96.512-46.464-80a24.448 24.448 0 0 0-26.752-11.392 24.192 24.192 0 0 0-17.152 11.776L421.376 418.56l-11.136-19.2a15.232 15.232 0 0 0-0.64-2.56L281.6 177.15200000000004a24.448 24.448 0 0 0-10.88-9.856 39.424 39.424 0 0 1 8.704-0.896h465.408a42.112 42.112 0 0 1 42.368 41.984V559.616A42.112 42.112 0 0 1 744.96 601.6zM691.2 472.32a33.024 33.024 0 0 0-32.64 0 32.384 32.384 0 0 0 0 56.192 33.024 33.024 0 0 0 32.64 0 32.256 32.256 0 0 0 0-56.192z"  horiz-adv-x="1024" />

    
    <glyph glyph-name="-regulations" unicode="&#58886;" d="M793.6 384l-85.632 190.848v18.56H550.4a41.216 41.216 0 1 1-81.792 0H314.624v-21.632L230.4 384c0-55.552 39.808-106.24 101.376-106.24s101.248 51.2 101.376 106.24l-76.8 171.648h122.24v-362.112H358.4c-45.952 0-65.152-22.912-65.152-65.536h437.12c0 36.608-18.688 65.536-65.152 65.536h-126.848V555.648h129.28L590.976 384c0-55.68 39.808-106.368 101.376-106.368S793.6 328.192 793.6 384z m-404.352 0h-115.2l57.6 147.328z m245.376 0l57.6 147.328L749.696 384z m0 0"  horiz-adv-x="1024" />

    
    <glyph glyph-name="-collection" unicode="&#58887;" d="M767.104 447.104a51.2 51.2 0 0 1-36.096 32.128l-107.776 29.184L550.4 614.4a50.432 50.432 0 0 1-38.4 25.6 46.464 46.464 0 0 1-39.424-25.6l-60.032-96.512-80.64-24.832-39.296-13.44a48.768 48.768 0 0 1-34.304-28.672 58.496 58.496 0 0 1 9.984-48.896l70.4-89.6-3.84-128a59.264 59.264 0 0 1 8.96-44.672 31.616 31.616 0 0 1 24.832-10.624 92.416 92.416 0 0 1 30.464 6.784l103.936 42.496 118.016-44.16a71.552 71.552 0 0 1 21.376-3.84c14.72 0 39.296 6.784 41.216 52.096l-6.4 115.2 76.8 103.168A53.888 53.888 0 0 1 768 447.616"  horiz-adv-x="1024" />

    
    <glyph glyph-name="-new" unicode="&#58888;" d="M747.136 520.576h-33.536v-307.2h-33.664V554.624A33.792 33.792 0 0 1 646.4 588.8H276.864A33.92 33.92 0 0 1 243.2 554.624v-341.248A33.92 33.92 0 0 1 276.864 179.20000000000005h470.272A33.92 33.92 0 0 1 780.8 213.37599999999998V486.4a33.92 33.92 0 0 1-33.664 34.176z m-268.8-17.152h100.736v-34.048h-100.608z m0-68.224h100.736v-34.176h-100.608z m-167.936 68.224h134.4v-102.4h-134.4z m0-136.448h268.8V332.79999999999995h-268.8z m0-68.352h268.8v-34.048h-268.8z"  horiz-adv-x="1024" />

    
    <glyph glyph-name="-read" unicode="&#58889;" d="M728.704 620.8H581.76a20.352 20.352 0 0 1-11.904-3.84l-36.096-23.424v-428.672a20.864 20.864 0 0 0-5.632-14.336 1.92 1.92 0 0 1 2.176-3.072l55.936 32.512h144.64a34.304 34.304 0 0 1 30.72 32.384V586.3679999999999a34.176 34.176 0 0 1-32.896 34.432zM490.24 164.86400000000003V593.5360000000001l-36.096 23.424a20.352 20.352 0 0 1-11.904 3.84H295.296a34.176 34.176 0 0 1-32.896-34.432V212.48000000000002a34.304 34.304 0 0 1 30.72-32.384h144.384l55.936-32.512a1.92 1.92 0 0 1 2.176 3.072 21.12 21.12 0 0 0-5.376 14.208z m-64 111.616H384a22.016 22.016 0 0 0 0 43.52h41.344a22.016 22.016 0 0 0 0-43.904z m0 97.92h-57.984a21.888 21.888 0 0 0 0 43.776h57.344a21.888 21.888 0 0 0 0-43.776z m0 97.792h-47.36a22.016 22.016 0 0 0 0 43.904h46.72a22.016 22.016 0 0 0 0-43.904z"  horiz-adv-x="1024" />

    
    <glyph glyph-name="-main" unicode="&#58890;" d="M695.68 487.808l-143.36 99.072a68.736 68.736 0 0 1-39.68 12.16 74.88 74.88 0 0 1-40.96-12.16l-143.488-99.072a67.072 67.072 0 0 1-30.464-57.6v-189.184a72.064 72.064 0 0 1 71.68-72.064h286.848a69.504 69.504 0 0 1 69.888 72.064V428.416a70.272 70.272 0 0 1-30.464 59.392z m-102.4-201.984H430.976a18.304 18.304 0 1 0 0 35.712h162.048a18.304 18.304 0 1 0 0-35.712z"  horiz-adv-x="1024" />

    
    <glyph glyph-name="-more" unicode="&#58891;" d="M332.8 435.2a51.2 51.2 0 1 1 51.2-51.2 51.2 51.2 0 0 1-51.2 51.2z m179.2 0a51.2 51.2 0 1 1 51.2-51.2 51.2 51.2 0 0 1-51.2 51.2z m179.2 0a51.2 51.2 0 1 1 51.2-51.2 51.2 51.2 0 0 1-51.2 51.2z"  horiz-adv-x="1024" />

    
    <glyph glyph-name="-history" unicode="&#58892;" d="M512 599.04A215.04 215.04 0 1 1 727.04 384 215.04 215.04 0 0 1 512 599.04z m69.888-256H499.2a17.92 17.92 0 0 0-17.92 17.92V473.6a17.92 17.92 0 0 0 35.84 0v-94.336h65.408a17.92 17.92 0 0 0 0-35.84z"  horiz-adv-x="1024" />

    
    <glyph glyph-name="-back" unicode="&#58893;" d="M475.776 384l126.72 126.72a25.6 25.6 0 0 1-36.224 36.224L421.504 402.048a25.6 25.6 0 0 1 0-36.096l144.768-144.896a25.6 25.6 0 0 1 36.224 36.224z"  horiz-adv-x="1024" />

    
    <glyph glyph-name="-txtquery" unicode="&#58894;" d="M614.4 530.304a179.2 179.2 0 1 1 0-253.44 179.2 179.2 0 0 1 0 253.44z m-26.88-226.304a140.8 140.8 0 1 0 0 199.168 140.8 140.8 0 0 0 0-199.168zM709.632 217.60000000000002l-45.184 45.312a19.328 19.328 0 0 1-27.136 0 19.072 19.072 0 0 1 0-27.136l45.184-45.312a19.328 19.328 0 0 1 27.136 0 19.072 19.072 0 0 1 0 27.136z"  horiz-adv-x="1024" />

    
    <glyph glyph-name="-law" unicode="&#58895;" d="M696.576 534.912L681.472 537.6a315.392 315.392 0 0 0-147.456 66.688l-1.536 1.408a33.152 33.152 0 0 1-41.984-0.896l-0.896-0.768A302.592 302.592 0 0 0 342.912 537.6l-15.616-2.304a16.256 16.256 0 0 1-12.8-15.744v-107.392c0-89.6 53.376-164.352 178.176-250.752a33.28 33.28 0 0 1 18.944-5.888 32.896 32.896 0 0 1 18.56 5.76c125.568 86.528 178.944 161.536 178.944 250.88v107.008a16.256 16.256 0 0 1-12.544 15.744z m-128-159.872h-113.152a18.176 18.176 0 0 0 0 35.84h113.152a18.176 18.176 0 0 0 0-35.84z"  horiz-adv-x="1024" />

    
    <glyph glyph-name="-my" unicode="&#58896;" d="M718.72 259.96799999999996l-4.864 18.176a99.328 99.328 0 0 1-95.872 72.832H406.528a99.072 99.072 0 0 1-95.744-72.832l-4.992-18.176a59.776 59.776 0 0 1-3.328-18.304 73.344 73.344 0 0 1 72.704-72.704h274.176a81.408 81.408 0 0 1 19.84 3.328A71.552 71.552 0 0 1 712.192 204.79999999999995a70.272 70.272 0 0 1 6.528 55.168zM512 384a99.584 99.584 0 0 1 99.2 99.328v82.688a33.152 33.152 0 0 1-33.024 33.024H512a99.456 99.456 0 0 1-98.816-99.84v-16.512A99.456 99.456 0 0 1 512 384z"  horiz-adv-x="1024" />

    
    <glyph glyph-name="-query" unicode="&#58897;" d="M753.92 142.08000000000004a48 48 0 0 0-67.968 0L601.6 226.94399999999996A225.408 225.408 0 1 0 669.056 294.4l84.864-84.864a48 48 0 0 0 0-67.968zM480.384 576a160.256 160.256 0 1 1 160.256-160.384A160.384 160.384 0 0 1 480.384 576z m0 0"  horiz-adv-x="1024" />

    
    <glyph glyph-name="-pic" unicode="&#58898;" d="M679.296 522.752h-32.128A53.376 53.376 0 0 0 615.936 537.6l-22.144 25.6a68.096 68.096 0 0 1-52.48 25.6h-58.24a66.816 66.816 0 0 1-54.272-26.496l-21.504-25.6a56.448 56.448 0 0 0-31.232-14.08h-31.36A50.176 50.176 0 0 1 294.4 472.832v-243.2A50.176 50.176 0 0 1 344.704 179.20000000000005h334.592A50.176 50.176 0 0 1 729.6 229.12v243.2a50.176 50.176 0 0 1-50.304 50.432zM691.2 229.12a12.8 12.8 0 0 0-12.8-12.8H344.704a12.8 12.8 0 0 0-12.8 12.8v243.2a12.8 12.8 0 0 0 12.8 12.8h31.36a91.136 91.136 0 0 1 60.288 26.88l21.504 25.6a28.928 28.928 0 0 0 25.6 12.8h58.24a30.336 30.336 0 0 0 23.424-11.392l22.016-25.6a89.6 89.6 0 0 1 60.416-28.672h32.128a12.8 12.8 0 0 0 12.8-12.8zM512 413.696a51.968 51.968 0 0 0 48-31.616 19.328 19.328 0 0 1 24.96-9.984 18.816 18.816 0 0 1 9.6 24.704 88.96 88.96 0 1 1-4.352-78.336 18.688 18.688 0 0 1-7.296 25.6 18.944 18.944 0 0 1-25.6-7.168A51.2 51.2 0 0 0 512 310.4a51.2 51.2 0 1 0 0 103.296z"  horiz-adv-x="1024" />

    
    <glyph glyph-name="-collection1" unicode="&#58899;" d="M409.6 531.9680000000001a62.848 62.848 0 0 0 44.544-18.304l22.016-21.888a51.2 51.2 0 0 1 71.936 0l22.016 21.888a63.36 63.36 0 0 0 89.6 0 88.576 88.576 0 0 0 0-125.568L512 242.048 364.928 388.096a88.576 88.576 0 0 0 0 125.568A63.104 63.104 0 0 0 409.6 531.9680000000001m0 51.2a113.536 113.536 0 0 1-80.512-33.152 138.624 138.624 0 0 1 0-196.992L486.4 195.96799999999996a36.096 36.096 0 0 1 51.2 0l157.44 156.416a138.624 138.624 0 0 1 0 196.992 114.304 114.304 0 0 1-161.024 0L512 527.616l-22.016 21.76A113.408 113.408 0 0 1 409.6 582.528z"  horiz-adv-x="1024" />

    
    <glyph glyph-name="-share" unicode="&#58900;" d="M691.2 588.8H563.2a25.6 25.6 0 0 1 0-51.2h66.176L465.92 374.144a25.6 25.6 0 0 1 36.224-36.224L665.6 501.376V435.2a25.6 25.6 0 0 1 51.2 0V563.2a25.6 25.6 0 0 1-25.6 25.6z m0-256a25.6 25.6 0 0 1-25.6-25.6v-76.8H358.4V537.6h76.8a25.6 25.6 0 0 1 0 51.2h-102.4a25.6 25.6 0 0 1-25.6-25.6v-358.4a25.6 25.6 0 0 1 25.6-25.6h358.4a25.6 25.6 0 0 1 25.6 25.6v102.4a25.6 25.6 0 0 1-25.6 25.6z"  horiz-adv-x="1024" />

    
    <glyph glyph-name="-print" unicode="&#58901;" d="M396.8 416V345.6a19.2 19.2 0 0 1 19.2-19.2h192A19.2 19.2 0 0 1 627.2 345.6v70.4a6.4 6.4 0 0 0 6.4 6.4h12.8a19.2 19.2 0 0 0 19.2-19.2V268.79999999999995a38.4 38.4 0 0 0-38.4-38.4H396.8a38.4 38.4 0 0 0-38.4 38.4V403.2a19.2 19.2 0 0 0 19.2 19.2h12.8a6.4 6.4 0 0 0 6.4-6.4z m38.4 121.6h153.6a19.2 19.2 0 0 0 19.2-19.2v-153.6A19.2 19.2 0 0 0 588.8 345.6H435.2a19.2 19.2 0 0 0-19.2 19.2v153.6A19.2 19.2 0 0 0 435.2 537.6z m28.8-57.6a9.6 9.6 0 0 1 0-19.2h96a9.6 9.6 0 0 1 0 19.2z m0-57.6a9.6 9.6 0 0 1 0-19.2h96a9.6 9.6 0 0 1 0 19.2z m0 0"  horiz-adv-x="1024" />

    
    <glyph glyph-name="-filter" unicode="&#58902;" d="M556.928 217.60000000000002a12.8 12.8 0 0 0-12.8 12.8V379.904a12.8 12.8 0 0 0 2.944 8.064l108.544 130.432a3.84 3.84 0 0 1 0 4.224A3.84 3.84 0 0 1 652.8 524.8H371.2a3.84 3.84 0 0 1-3.712-2.304 3.84 3.84 0 0 1 0-4.224l106.496-128a12.8 12.8 0 0 0 2.944-8.064v-112a12.8 12.8 0 0 0-25.6 0v107.904l-103.552 124.16a28.928 28.928 0 0 0-3.84 31.36A29.696 29.696 0 0 0 371.2 550.4h281.6a29.568 29.568 0 0 0 27.136-16.896 28.672 28.672 0 0 0-3.84-31.232l-105.728-126.976V230.39999999999998a12.8 12.8 0 0 0-13.44-12.8z"  horiz-adv-x="1024" />

    
    <glyph glyph-name="-help" unicode="&#58903;" d="M512 601.6a217.6 217.6 0 1 1 217.6-217.6 217.6 217.6 0 0 1-217.6 217.6z m0-396.8a179.2 179.2 0 1 0 179.2 179.2 179.2 179.2 0 0 0-179.2-179.2z m-6.784 124.288a19.712 19.712 0 0 1-14.08-5.376 19.84 19.84 0 0 1 0-27.648 19.968 19.968 0 0 1 14.08-5.632 19.712 19.712 0 0 1 14.08 5.376 19.84 19.84 0 0 1 0 27.904 20.352 20.352 0 0 1-14.08 5.376z m4.608 147.84a61.184 61.184 0 0 1-44.8-16.128A58.624 58.624 0 0 1 448 416.128h29.184a42.24 42.24 0 0 0 6.4 25.6 26.752 26.752 0 0 0 24.064 10.496 27.776 27.776 0 0 0 20.48-7.168 29.44 29.44 0 0 0 0-38.4l-3.072-3.584a139.136 139.136 0 0 1-29.952-32.512 54.272 54.272 0 0 1-5.12-25.6v-3.584h29.44V345.6a36.224 36.224 0 0 0 3.84 16.64 39.68 39.68 0 0 0 10.24 12.8c12.8 10.752 19.712 17.664 22.016 20.224a51.2 51.2 0 0 1 9.472 31.488A46.592 46.592 0 0 1 550.4 463.36a58.24 58.24 0 0 1-40.576 13.568z"  horiz-adv-x="1024" />

    
    <glyph glyph-name="-img" unicode="&#58904;" d="M689.536 576H334.464A52.608 52.608 0 0 1 281.6 523.648v-279.296A52.608 52.608 0 0 1 334.464 192h355.072A52.608 52.608 0 0 1 742.4 244.35199999999998V523.648A52.608 52.608 0 0 1 689.536 576z m11.904-331.648a11.904 11.904 0 0 0-11.904-11.904H334.464a11.904 11.904 0 0 0-11.904 11.904V523.648a11.904 11.904 0 0 0 11.904 11.904h355.072a11.904 11.904 0 0 0 11.904-11.904z m-109.824 77.824c-17.408-6.4-27.904-9.6-40.576-2.176a57.472 57.472 0 0 0-25.6 35.84 88.704 88.704 0 0 1-49.536 57.984 153.6 153.6 0 0 1-110.592 6.144 20.096 20.096 0 0 1-11.776-25.6 20.608 20.608 0 0 1 26.24-11.904 113.152 113.152 0 0 0 79.104-4.992c18.176-8.32 22.144-19.072 28.288-35.328a96 96 0 0 1 43.136-56.576c29.952-17.664 56.32-8.064 75.648-1.024s25.6 8.064 34.048-2.432a20.224 20.224 0 0 1 15.616-7.168 20.608 20.608 0 0 1 12.8 4.736 20.096 20.096 0 0 1 2.688 27.52c-28.032 33.664-59.008 22.4-79.488 14.976z m18.944 110.08a30.464 30.464 0 1 1-30.72 30.464 30.72 30.72 0 0 1 30.72-30.464z"  horiz-adv-x="1024" />

    
    <glyph glyph-name="-del" unicode="&#58905;" d="M548.224 384l135.68 135.808a25.6 25.6 0 0 1-36.096 36.224L512 420.224 376.192 556.0319999999999a25.6 25.6 0 0 1-36.096-36.224L475.776 384l-135.68-135.808a25.6 25.6 0 0 1 36.096-36.224L512 347.77599999999995l135.808-135.808a25.6 25.6 0 0 1 36.096 36.224z"  horiz-adv-x="1024" />

    
    <glyph glyph-name="-ok" unicode="&#58906;" d="M650.24 473.6a26.496 26.496 0 0 1-36.736 0l-129.152-125.44-73.856 71.68a26.24 26.24 0 0 1-36.736 0 25.6 25.6 0 0 1 0-35.84l92.16-89.6a26.496 26.496 0 0 1 36.736 0L650.24 437.632a25.6 25.6 0 0 1 0 35.968z"  horiz-adv-x="1024" />

    
    <glyph glyph-name="-time" unicode="&#58907;" d="M512 601.6a217.6 217.6 0 1 1 217.6-217.6 217.6 217.6 0 0 1-217.6 217.6z m0-396.8a179.2 179.2 0 1 0 179.2 179.2 179.2 179.2 0 0 0-179.2-179.2z m96 192H512v44.8a19.2 19.2 0 0 1-38.4 0v-64a19.2 19.2 0 0 1 19.2-19.2h115.2a19.2 19.2 0 0 1 0 38.4z"  horiz-adv-x="1024" />

    
    <glyph glyph-name="-police" unicode="&#58916;" d="M720.128 321.15200000000004H275.584a12.8 12.8 0 0 1-12.8-13.44v-28.544a41.6 41.6 0 0 1 10.112-27.776C326.784 190.08000000000004 416.256 153.60000000000002 512 153.60000000000002s185.216 36.736 239.104 98.048a41.6 41.6 0 0 1 10.112 27.776V307.20000000000005a12.8 12.8 0 0 1-12.8 13.44z m122.496 180.992a41.728 41.728 0 0 1-28.032 27.008l-291.2 83.84a40.576 40.576 0 0 1-22.784 0l-291.2-83.84a41.472 41.472 0 0 1-28.032-27.008 42.24 42.24 0 0 1 6.144-38.4l62.464-83.712a41.6 41.6 0 0 1 33.28-16.896h457.6a41.6 41.6 0 0 1 33.28 16.896l62.464 83.712a42.24 42.24 0 0 1 6.016 38.4z m-264.192-32.896c0-34.688-57.088-64-65.408-67.584a2.816 2.816 0 0 0-2.048 0c-8.32 3.84-65.536 32-65.536 67.584v74.368a2.304 2.304 0 0 0 2.56 2.432 91.648 91.648 0 0 1 25.6 2.176 109.568 109.568 0 0 1 36.992 18.048 2.56 2.56 0 0 0 3.2 0 71.68 71.68 0 0 1 39.552-17.664 84.224 84.224 0 0 1 23.168-2.176 2.432 2.432 0 0 0 2.56-2.432v-74.368z m0 0"  horiz-adv-x="1024" />

    
    <glyph glyph-name="-msg" unicode="&#58917;" d="M512-89.08799999999997a471.04 471.04 0 0 0-260.437333 78.165333c-39.3216-7.9872-124.177067-22.596267-145.066667-3.072-20.48 22.254933-0.750933 102.4 9.557333 139.195734a473.019733 473.019733 0 1 0 395.946667-214.289067z"  horiz-adv-x="1024" />

    
    <glyph glyph-name="-date" unicode="&#58918;" d="M403.2 480.768a19.328 19.328 0 0 1 19.2 19.456v77.696a19.2 19.2 0 1 1-38.4 0v-77.696a19.328 19.328 0 0 1 19.2-19.456z m217.6 4.096A19.328 19.328 0 0 1 640 504.32v77.696a19.2 19.2 0 1 1-38.4 0v-77.696a19.328 19.328 0 0 1 19.2-19.456z m-181.376 31.488h145.152a4.352 4.352 0 0 1 4.224 4.352V550.4a4.224 4.224 0 0 1-4.224 4.224H439.424A4.224 4.224 0 0 1 435.2 550.4v-30.336a4.352 4.352 0 0 1 4.224-3.712z m260.224 38.4h-42.752a4.096 4.096 0 0 1-4.096-4.096v-30.592a4.096 4.096 0 0 1 4.096-4.224H691.2v-297.344a12.8 12.8 0 0 0-12.8-12.8H345.6a12.8 12.8 0 0 0-12.8 12.8V503.424a12.8 12.8 0 0 0 12.8 12.8h21.504a4.096 4.096 0 0 1 3.968 4.096v30.976a3.968 3.968 0 0 1-3.968 3.968h-42.752A30.208 30.208 0 0 1 294.4 524.8v-327.808A30.208 30.208 0 0 1 324.352 166.39999999999998h375.296A30.208 30.208 0 0 1 729.6 196.99199999999996V524.8a30.208 30.208 0 0 1-29.952 30.464zM485.12 252.54399999999998a2.688 2.688 0 0 1 2.432-3.712h23.552a3.072 3.072 0 0 1 2.56 1.664l61.056 156.416a3.84 3.84 0 0 1 0 1.28v22.656a3.2 3.2 0 0 1-3.2 3.2h-119.808a2.688 2.688 0 0 1-2.688-2.688V409.6a2.688 2.688 0 0 1 2.688-2.688h89.6a3.072 3.072 0 0 0 2.816-4.224z"  horiz-adv-x="1024" />

    
    <glyph glyph-name="-info" unicode="&#58919;" d="M542.592 471.296h190.72a1.024 1.024 0 0 1 0.64 1.792L513.664 664.448a1.024 1.024 0 0 1-1.664-0.768V500.48a29.952 29.952 0 0 1 30.592-29.184z m181.12-29.184H542.592a59.776 59.776 0 0 0-61.184 58.368V654.848a10.752 10.752 0 0 1-10.88 10.752H318.592a29.952 29.952 0 0 1-30.592-29.184v-504.832A29.952 29.952 0 0 1 318.592 102.39999999999998h386.816a29.952 29.952 0 0 1 30.592 29.184V430.08a12.8 12.8 0 0 1-12.288 12.032z m-182.4-256h-140.8a27.776 27.776 0 1 0 0 55.552h140.8a27.776 27.776 0 1 0 0-55.552z m89.6 117.504h-230.4a27.904 27.904 0 1 0 0 55.68h230.4a27.904 27.904 0 1 0 0-55.68z"  horiz-adv-x="1024" />

    
    <glyph glyph-name="-down" unicode="&#58920;" d="M405.674667 486.4h212.309333a12.8 12.8 0 0 0 11.434667-19.797333l-105.984-178.517334a13.312 13.312 0 0 0-22.869334 0c-5.973333 9.728-99.669333 167.594667-106.154666 179.029334a12.629333 12.629333 0 0 0 11.264 19.285333z"  horiz-adv-x="1024" />

    
    <glyph glyph-name="-add" unicode="&#58921;" d="M800 403.2h-268.8v268.8a19.2 19.2 0 0 1-38.4 0v-268.8h-268.8a19.2 19.2 0 0 1 0-38.4h268.8v-268.8a19.2 19.2 0 0 1 38.4 0v268.8h268.8a19.2 19.2 0 0 1 0 38.4z"  horiz-adv-x="1024" />

    
    <glyph glyph-name="-map" unicode="&#58922;" d="M500.736 279.552a15.744 15.744 0 0 1 22.528 0l85.376 85.76A144.128 144.128 0 0 1 651.008 448a140.8 140.8 0 0 1-39.808 118.4 140.032 140.032 0 0 1-198.4 0 140.8 140.8 0 0 1 0-198.912z m-60.672 259.712a101.376 101.376 0 0 0 144 0 101.376 101.376 0 0 0 28.8-85.888 106.88 106.88 0 0 0-31.488-60.672L512 322.94399999999996l-72.064 72.192a102.4 102.4 0 0 0 0 144.128zM744.96 212.22400000000005l-35.584 116.096a39.808 39.808 0 0 1-38.4 28.416h-34.944a19.328 19.328 0 0 1 0-38.4h35.072a1.664 1.664 0 0 0 1.536-1.152l35.456-116.096a1.28 1.28 0 0 0 0-1.408 1.408 1.408 0 0 0-1.28 0H317.44a1.408 1.408 0 0 0-1.28 0 1.28 1.28 0 0 0 0 1.408l35.456 116.096a1.664 1.664 0 0 0 1.536 1.152H384a19.328 19.328 0 1 1 0 38.4h-31.104a40.064 40.064 0 0 1-38.4-28.416l-35.456-116.096a39.808 39.808 0 0 1 6.144-35.84 39.424 39.424 0 0 1 32.256-16.256h389.12a39.424 39.424 0 0 1 32.256 16.256 39.808 39.808 0 0 1 6.144 35.84zM512 433.92a32.256 32.256 0 1 1-32.128 32.256A32.128 32.128 0 0 1 512 433.92z"  horiz-adv-x="1024" />

    
    <glyph glyph-name="-evidence" unicode="&#58923;" d="M710.912 652.8H313.088a38.4 38.4 0 0 1-38.4-38.4v-460.8a38.4 38.4 0 0 1 38.4-38.4h397.824a38.4 38.4 0 0 1 38.4 38.4V614.4a38.4 38.4 0 0 1-38.4 38.4zM512 561.5360000000001a115.2 115.2 0 1 0-113.664-115.2 114.432 114.432 0 0 0 113.664 115.2zM644.608 192H379.392a19.2 19.2 0 0 0 0 38.4h265.216a19.2 19.2 0 0 0 0-38.4zM469.12 430.72l-7.296-44.928a8.832 8.832 0 0 1 3.584-8.448 8.448 8.448 0 0 1 9.088 0L512 397.568l37.504-20.992a8.32 8.32 0 0 1 3.968-1.024 8.576 8.576 0 0 1 7.04 3.584 9.216 9.216 0 0 1 1.152 7.936l-6.912 43.392 30.592 31.744a8.832 8.832 0 0 1 1.92 8.832 8.448 8.448 0 0 1-6.784 5.888l-41.856 6.528-18.688 40.576a8.704 8.704 0 0 1-7.808 5.12 8.576 8.576 0 0 1-7.808-4.992l-18.816-40.576-41.984-6.4a8.32 8.32 0 0 1-6.784-5.888 8.32 8.32 0 0 1 1.92-8.832z"  horiz-adv-x="1024" />

    
    <glyph glyph-name="-record" unicode="&#58924;" d="M684.544 436.224A19.456 19.456 0 0 1 665.6 416.768a153.6 153.6 0 1 0-306.432 0 19.328 19.328 0 1 1-38.4 0 192.896 192.896 0 0 1 172.544-192v-51.2a19.328 19.328 0 1 1 38.4 0v51.2a192.896 192.896 0 0 1 172.288 192 19.328 19.328 0 0 1-19.456 19.456zM512 303.23199999999997a116.352 116.352 0 0 1 116.096 116.608v77.824a116.096 116.096 0 1 1-232.192 0v-77.824A116.352 116.352 0 0 1 512 303.23199999999997z m-76.8 194.432a76.8 76.8 0 1 0 154.624 0v-77.824a76.8 76.8 0 1 0-154.624 0z"  horiz-adv-x="1024" />

    
    <glyph glyph-name="-sound" unicode="&#58926;" d="M624.64 548.608a21.632 21.632 0 0 1-16.128 1.792l-41.216-11.008a31.232 31.232 0 0 1-23.296-30.08v-115.2a100.48 100.48 0 0 1-65.92 17.024 99.328 99.328 0 0 1-89.6-91.136 96.768 96.768 0 0 1 26.624-73.472 99.2 99.2 0 0 1 171.136 66.944V497.408a5.12 5.12 0 0 0 3.84 4.864l29.056 7.68a21.12 21.12 0 0 1 15.104 25.6 20.224 20.224 0 0 1-9.856 12.8z m-80.768-234.112a56.064 56.064 0 1 0-56.064 55.552 55.808 55.808 0 0 0 56.064-55.552z m0 0M512 742.4a358.4 358.4 0 1 0-358.4-358.4 358.4 358.4 0 0 0 358.4 358.4m0 25.6a384 384 0 1 1 384-384 384 384 0 0 1-384 384z"  horiz-adv-x="1024" />

    
    <glyph glyph-name="-video" unicode="&#58927;" d="M417.664 277.24800000000005V490.496a15.104 15.104 0 0 0 23.168 11.392l209.024-106.368a12.8 12.8 0 0 0 0-23.04c-11.392-5.888-196.096-100.096-209.536-106.624a15.104 15.104 0 0 0-22.656 11.392zM512 742.4a358.4 358.4 0 1 0-358.4-358.4 358.4 358.4 0 0 0 358.4 358.4m0 25.6a384 384 0 1 1 384-384 384 384 0 0 1-384 384z"  horiz-adv-x="1024" />

    
    <glyph glyph-name="-print1" unicode="&#58928;" d="M696.064 547.456h-20.48V588.8a41.088 41.088 0 0 1-41.088 40.96H389.376a40.832 40.832 0 0 1-40.96-40.96v-40.96h-20.48a61.44 61.44 0 0 1-61.44-61.44v-204.8A40.832 40.832 0 0 1 307.2 240.89599999999996h41.088v-81.664a20.352 20.352 0 0 1 20.48-20.48h286.464a20.608 20.608 0 0 1 14.464 6.016 20.224 20.224 0 0 1 5.888 14.464v81.664H716.8A40.832 40.832 0 0 1 757.504 281.6V486.4a61.44 61.44 0 0 1-61.44 61.056z m-307.2 40.96h245.888v-40.832H389.376zM634.624 179.20000000000005H389.248V343.168h245.504z m40.96 102.4v81.92a20.224 20.224 0 0 1-5.888 14.464 20.608 20.608 0 0 1-14.464 6.016H368.768a20.352 20.352 0 0 1-20.352-20.48V281.6H307.2V486.4a20.48 20.48 0 0 0 20.48 20.48h368.384A20.48 20.48 0 0 0 716.8 486.4v-204.8z m-40.832 181.632a20.48 20.48 0 1 1 20.48-20.48 20.48 20.48 0 0 1-20.48 20.48z"  horiz-adv-x="1024" />

    
    <glyph glyph-name="-coll" unicode="&#58929;" d="M379.776 131.96799999999996a47.616 47.616 0 0 0-35.584 15.872l-1.536 2.048a72.448 72.448 0 0 0-11.264 52.992l3.2 109.312-60.032 76.8a71.168 71.168 0 0 0-12.8 60.416l0.896 2.688a62.592 62.592 0 0 0 43.136 36.736l34.944 12.032 67.584 20.736 51.2 81.408a60.416 60.416 0 0 0 51.2 33.152h2.56a64 64 0 0 0 49.92-31.616l62.08-91.008L716.8 488.576A65.408 65.408 0 0 0 762.112 448l0.896-3.328a68.224 68.224 0 0 0-16.896-57.6l-65.152-87.936 5.632-99.84v-0.896c-2.56-60.544-43.52-65.28-56.064-65.28a85.376 85.376 0 0 0-25.6 4.608l-101.248 38.4-88.32-36.608a98.944 98.944 0 0 0-33.792-7.552z m-7.296 39.68a10.88 10.88 0 0 1 7.552-2.816 63.232 63.232 0 0 1 21.376 4.864l101.504 41.472 114.432-42.752a45.568 45.568 0 0 1 13.568-2.432c4.864 0 17.28 0 18.688 29.056l-6.144 111.36 75.136 101.248a30.592 30.592 0 0 1 8.32 25.6 28.288 28.288 0 0 1-19.456 16.256L601.6 481.536l-70.784 103.936a27.776 27.776 0 0 1-20.224 13.568 24.32 24.32 0 0 1-19.072-12.8l-0.896-1.664-57.984-94.464-80.128-24.576-37.248-12.8a25.6 25.6 0 0 1-17.664-14.08 34.176 34.176 0 0 1 6.272-27.648l67.968-86.784-3.968-127.104a35.328 35.328 0 0 1 4.608-25.472z"  horiz-adv-x="1024" />

    
    <glyph glyph-name="-host" unicode="&#58930;" d="M560.896 351.48800000000006a25.6 25.6 0 0 0 0-48.896h-97.792a25.6 25.6 0 0 0 0 48.896zM691.2 229.12a25.6 25.6 0 0 0-24.32-24.32h-204.8a25.6 25.6 0 0 0 0 48.896h179.2V389.12L512 505.6l-130.304-116.224v-160.256a25.6 25.6 0 0 0-48.896 0v170.752a25.6 25.6 0 0 0 7.168 18.176l153.6 137.984a25.6 25.6 0 0 0 34.816 0l153.6-137.728a30.464 30.464 0 0 0 4.096-5.888 25.6 25.6 0 0 0 3.072-11.52v-171.264z m0 0"  horiz-adv-x="1024" />

    
    <glyph glyph-name="-zan" unicode="&#58931;" d="M492.928 533.376a12.8 12.8 0 0 0 9.728-12.8v-76.8a57.984 57.984 0 0 1 57.984-57.856H665.6L640 230.39999999999998a0.896 0.896 0 0 0-0.768 0H358.4v116.48h-38.4 88.064a58.112 58.112 0 0 1 56.832 46.464l28.032 139.136M478.336 576a20.224 20.224 0 0 1-10.368-2.944 19.712 19.712 0 0 1-8.704-12.8l-32-158.592a19.456 19.456 0 0 0-19.2-15.616H358.4a39.168 39.168 0 0 1-38.4-38.4V230.39999999999998a39.168 39.168 0 0 1 39.04-38.4h279.936a38.4 38.4 0 0 1 38.4 32.512l25.6 155.264a38.4 38.4 0 0 1-38.4 45.184h-103.68a19.584 19.584 0 0 0-19.584 19.456v76.8a51.2 51.2 0 0 1-38.4 49.664l-19.072 4.736a21.12 21.12 0 0 1-4.864 0.64z"  horiz-adv-x="1024" />

    
    <glyph glyph-name="-lamp" unicode="&#58925;" d="M388.864 171.00800000000004a19.712 19.712 0 0 0-10.88 3.328 20.224 20.224 0 0 0-8.064 22.4l46.208 155.904h-49.664a19.456 19.456 0 0 0-16 8.32 20.096 20.096 0 0 0-2.688 18.048l67.2 204.8a19.584 19.584 0 0 0 18.688 13.696h201.472a19.712 19.712 0 0 0 16-8.192 20.096 20.096 0 0 0 2.688-18.048l-43.008-133.248h46.72a19.712 19.712 0 0 0 18.56-12.8 20.352 20.352 0 0 0-5.888-22.144l-268.8-227.072a19.2 19.2 0 0 0-12.544-4.992z m4.864 221.568h48.896a19.456 19.456 0 0 0 15.744-8.064 20.096 20.096 0 0 0 3.072-17.664l-34.944-118.016 176.64 149.248H583.68a19.968 19.968 0 0 0-18.688 25.6l43.008 133.376H448z"  horiz-adv-x="1024" />

    
    <glyph glyph-name="-lampauto" unicode="&#58932;" d="M591.104 438.016h-46.72l43.008 132.736a20.096 20.096 0 0 1-2.688 18.048 19.84 19.84 0 0 1-16 8.192H367.104a19.712 19.712 0 0 1-18.688-13.696L281.6 379.00800000000004a20.096 20.096 0 0 1 2.688-18.048 19.456 19.456 0 0 1 15.872-8.32h49.792l-46.464-155.904a20.224 20.224 0 0 1 8.064-22.4 19.328 19.328 0 0 1 10.752-3.328 19.584 19.584 0 0 1 12.8 4.608l268.8 227.072a20.096 20.096 0 0 1 6.016 22.144 19.712 19.712 0 0 1-18.816 13.184z m-89.6-31.616a19.456 19.456 0 0 1 16-8.32h19.456L360.064 248.832l34.944 118.016a20.096 20.096 0 0 1-3.072 17.152 19.584 19.584 0 0 1-15.872 8.064h-48.768l54.016 164.48h160.256l-43.136-132.224a20.224 20.224 0 0 1 2.816-17.92z m192.768 180.096H665.6l-49.536-119.552h29.824l11.648 27.648h45.312l11.648-27.648h29.184z m-31.488-70.528l17.024 41.728 17.024-41.728z"  horiz-adv-x="1024" />

    
    <glyph glyph-name="-lampclose" unicode="&#58933;" d="M389.888 618.624a19.2 19.2 0 0 1-33.28-19.2l236.8-409.6a19.2 19.2 0 1 1 33.28 19.2zM426.496 243.20000000000005L460.8 360.96000000000004l-14.336 24.96a17.92 17.92 0 0 1-4.352 1.024h-48.384l19.072 58.112-26.368 45.824-38.4-117.504a20.096 20.096 0 0 1 2.688-18.048 19.456 19.456 0 0 1 16-8.32h49.664L369.92 191.10400000000004a20.224 20.224 0 0 1 8.064-22.4 18.816 18.816 0 0 1 10.88-3.328 19.2 19.2 0 0 1 12.8 4.608l114.432 96.64-20.224 34.944z m249.6 176a19.712 19.712 0 0 1-18.56 12.8h-46.72l43.008 132.736a19.84 19.84 0 0 1-2.688 17.92 19.456 19.456 0 0 1-16 8.32H432l22.912-39.68h153.6l-43.52-132.608a19.968 19.968 0 0 1 18.688-26.24h19.456l-38.4-32.128 20.096-34.944L670.208 396.8a20.352 20.352 0 0 1 5.888 22.4z"  horiz-adv-x="1024" />

    
    <glyph glyph-name="-zan2" unicode="&#58934;" d="M398.208 386.176h9.856a19.456 19.456 0 0 1 19.2 15.616l32 158.592a19.328 19.328 0 0 0 23.936 14.976l19.072-4.736a51.2 51.2 0 0 0 38.4-49.664v-76.8a19.584 19.584 0 0 1 19.584-19.456H665.6a38.4 38.4 0 0 0 29.696-13.696 39.04 39.04 0 0 0 8.704-31.232l-25.6-155.264A38.4 38.4 0 0 0 640 192H359.168a39.168 39.168 0 0 0-27.648 11.392A38.4 38.4 0 0 0 320 230.39999999999998v116.864a38.4 38.4 0 0 0 11.52 27.52 39.168 39.168 0 0 0 27.648 11.392z"  horiz-adv-x="1024" />

    
    <glyph glyph-name="-coll2" unicode="&#58935;" d="M754.432 443.904a49.28 49.28 0 0 1-34.304 30.592l-102.4 27.776-68.992 101.12A48 48 0 0 1 512 627.2a43.904 43.904 0 0 1-38.4-24.704l-57.088-91.648-76.8-23.552-37.376-12.8a46.336 46.336 0 0 1-32.512-27.264 55.68 55.68 0 0 1 9.344-46.464l66.816-85.248-3.584-122.112a56.576 56.576 0 0 1 8.448-42.496 30.72 30.72 0 0 1 23.808-10.112 89.6 89.6 0 0 1 28.8 6.4l98.688 40.32L614.4 145.664a69.504 69.504 0 0 1 20.352-3.584c14.08 0 37.376 6.4 39.296 49.408l-6.144 110.08 72.576 98.048a51.2 51.2 0 0 1 12.8 44.288"  horiz-adv-x="1024" />

    
    <glyph glyph-name="-tongji" unicode="&#58908;" d="M751.691852 426.856296a240.425086 240.425086 0 0 1-196.961975 196.835556c-9.98716 1.643457-20.100741-1.137778-27.812346-7.585185-7.711605-6.573827-12.136296-16.055309-12.136296-26.168889v-168.643951c0-9.102222 3.666173-17.825185 10.11358-24.272592s15.17037-10.11358 24.272592-10.113581h168.770371c10.11358 0 19.721481 4.424691 26.168889 12.136297 6.447407 7.711605 9.228642 17.825185 7.585185 27.812345z m-88.620247-68.645926H503.150617c-9.481481 0-17.193086 7.711605-17.193086 17.193087v159.288889c0.12642 10.24-4.298272 19.974321-12.009877 26.548148-7.711605 6.700247-18.078025 9.481481-28.191605 7.711605-106.192593-20.48-180.527407-116.559012-173.574321-224.395062a214.534321 214.534321 0 0 1 200.880988-200.375309c107.836049-6.700247 203.915062 67.760988 224.268642 173.827161 1.769877 10.11358-1.137778 20.35358-7.711605 28.191605a34.512593 34.512593 0 0 1-26.548148 12.009876z"  horiz-adv-x="1024" />

    
    <glyph glyph-name="-local" unicode="&#58910;" d="M512.12642 456.185679c-19.215802 0-34.765432-15.17037-34.765432-33.880494 0-18.710123 15.676049-33.880494 34.765432-33.880494 19.215802 0 34.765432 15.17037 34.765432 33.880494 0 18.710123-15.54963 33.880494-34.765432 33.880494z m94.435555 88.367407c-1.011358 0.632099-1.896296 1.264198-2.907654 1.896297-0.505679 0.505679-1.137778 0.884938-1.643457 1.264197-1.264198 0.758519-2.654815 1.517037-3.919012 2.275556l-2.149136 1.264197c-10.36642 6.068148-21.491358 10.872099-32.869136 14.538272l-1.643457 0.505679c-3.160494 1.011358-6.573827 1.896296-10.24 2.781235l-1.643456 0.379259c-4.045432 0.884938-7.711605 1.643457-10.872099 2.149136-0.12642 0-0.505679 0.12642-0.758519 0.126419-3.919012 0.632099-8.090864 1.011358-12.262716 1.390618l-1.769876 0.126419c-3.286914 0.25284-6.573827 0.379259-9.987161 0.37926-1.264198 0.12642-2.401975 0-3.666173 0h-0.505679l-4.298271-0.12642-6.447408-0.379259-2.275555-0.25284c-2.781235-0.25284-5.436049-0.505679-8.470124-1.011358-5.562469-0.758519-10.49284-1.643457-15.04395-2.781234-0.758519-0.12642-1.390617-0.379259-2.149136-0.632099-6.953086-1.769877-13.653333-3.792593-19.847901-6.320988-14.411852-5.562469-27.812346-13.147654-40.201482-22.502716-0.632099-0.379259-1.137778-0.758519-1.643457-1.137778-39.063704-30.59358-61.56642-76.104691-61.566419-124.776296 0-38.052346 14.032593-74.966914 39.442963-103.917037 0.12642-0.12642 0.25284-0.25284 0.379259-0.505679 1.137778-1.137778 10.49284-10.998519 16.181728-15.928889l97.090371-94.561975a16.19437 16.19437 0 0 1 22.502716 0l97.09037 94.561975c5.688889 4.93037 15.043951 14.791111 16.181729 15.928889 0.12642 0.12642 0.25284 0.25284 0.379259 0.505679 25.41037 28.950123 39.442963 65.864691 39.442963 103.917037 0 51.958519-26.168889 100.882963-69.910124 130.844444z m-94.435555-196.835555c-42.224198 0-76.61037 33.501235-76.610371 74.587654 0 41.08642 34.386173 74.587654 76.610371 74.587655 42.224198 0 76.61037-33.501235 76.61037-74.587655 0-41.21284-34.386173-74.587654-76.61037-74.587654zM512.12642 456.185679c-19.215802 0-34.765432-15.17037-34.765432-33.880494 0-18.710123 15.676049-33.880494 34.765432-33.880494 19.215802 0 34.765432 15.17037 34.765432 33.880494 0 18.710123-15.54963 33.880494-34.765432 33.880494z m94.435555 88.367407c-1.011358 0.632099-1.896296 1.264198-2.907654 1.896297-0.505679 0.505679-1.137778 0.884938-1.643457 1.264197-1.264198 0.758519-2.654815 1.517037-3.919012 2.275556l-2.149136 1.264197c-10.36642 6.068148-21.491358 10.872099-32.869136 14.538272l-1.643457 0.505679c-3.160494 1.011358-6.573827 1.896296-10.24 2.781235l-1.643456 0.379259c-4.045432 0.884938-7.711605 1.643457-10.872099 2.149136-0.12642 0-0.505679 0.12642-0.758519 0.126419-3.919012 0.632099-8.090864 1.011358-12.262716 1.390618l-1.769876 0.126419c-3.286914 0.25284-6.573827 0.379259-9.987161 0.37926-1.264198 0.12642-2.401975 0-3.666173 0h-0.505679l-4.298271-0.12642-6.447408-0.379259-2.275555-0.25284c-2.781235-0.25284-5.436049-0.505679-8.470124-1.011358-5.562469-0.758519-10.49284-1.643457-15.04395-2.781234-0.758519-0.12642-1.390617-0.379259-2.149136-0.632099-6.953086-1.769877-13.653333-3.792593-19.847901-6.320988-14.411852-5.562469-27.812346-13.147654-40.201482-22.502716-0.632099-0.379259-1.137778-0.758519-1.643457-1.137778-39.063704-30.59358-61.56642-76.104691-61.566419-124.776296 0-38.052346 14.032593-74.966914 39.442963-103.917037 0.12642-0.12642 0.25284-0.25284 0.379259-0.505679 1.137778-1.137778 10.49284-10.998519 16.181728-15.928889l97.090371-94.561975a16.19437 16.19437 0 0 1 22.502716 0l97.09037 94.561975c5.688889 4.93037 15.043951 14.791111 16.181729 15.928889 0.12642 0.12642 0.25284 0.25284 0.379259 0.505679 25.41037 28.950123 39.442963 65.864691 39.442963 103.917037 0 51.958519-26.168889 100.882963-69.910124 130.844444z m-94.435555-196.835555c-42.224198 0-76.61037 33.501235-76.610371 74.587654 0 41.08642 34.386173 74.587654 76.610371 74.587655 42.224198 0 76.61037-33.501235 76.61037-74.587655 0-41.21284-34.386173-74.587654-76.61037-74.587654zM512.12642 456.185679c-19.215802 0-34.765432-15.17037-34.765432-33.880494 0-18.710123 15.676049-33.880494 34.765432-33.880494 19.215802 0 34.765432 15.17037 34.765432 33.880494 0 18.710123-15.54963 33.880494-34.765432 33.880494z m94.435555 88.367407c-1.011358 0.632099-1.896296 1.264198-2.907654 1.896297-0.505679 0.505679-1.137778 0.884938-1.643457 1.264197-1.264198 0.758519-2.654815 1.517037-3.919012 2.275556l-2.149136 1.264197c-10.36642 6.068148-21.491358 10.872099-32.869136 14.538272l-1.643457 0.505679c-3.160494 1.011358-6.573827 1.896296-10.24 2.781235l-1.643456 0.379259c-4.045432 0.884938-7.711605 1.643457-10.872099 2.149136-0.12642 0-0.505679 0.12642-0.758519 0.126419-3.919012 0.632099-8.090864 1.011358-12.262716 1.390618l-1.769876 0.126419c-3.286914 0.25284-6.573827 0.379259-9.987161 0.37926-1.264198 0.12642-2.401975 0-3.666173 0h-0.505679l-4.298271-0.12642-6.447408-0.379259-2.275555-0.25284c-2.781235-0.25284-5.436049-0.505679-8.470124-1.011358-5.562469-0.758519-10.49284-1.643457-15.04395-2.781234-0.758519-0.12642-1.390617-0.379259-2.149136-0.632099-6.953086-1.769877-13.653333-3.792593-19.847901-6.320988-14.411852-5.562469-27.812346-13.147654-40.201482-22.502716-0.632099-0.379259-1.137778-0.758519-1.643457-1.137778-39.063704-30.59358-61.56642-76.104691-61.566419-124.776296 0-38.052346 14.032593-74.966914 39.442963-103.917037 0.12642-0.12642 0.25284-0.25284 0.379259-0.505679 1.137778-1.137778 10.49284-10.998519 16.181728-15.928889l97.090371-94.561975a16.19437 16.19437 0 0 1 22.502716 0l97.09037 94.561975c5.688889 4.93037 15.043951 14.791111 16.181729 15.928889 0.12642 0.12642 0.25284 0.25284 0.379259 0.505679 25.41037 28.950123 39.442963 65.864691 39.442963 103.917037 0 51.958519-26.168889 100.882963-69.910124 130.844444z m-94.435555-196.835555c-42.224198 0-76.61037 33.501235-76.610371 74.587654 0 41.08642 34.386173 74.587654 76.610371 74.587655 42.224198 0 76.61037-33.501235 76.61037-74.587655 0-41.21284-34.386173-74.587654-76.61037-74.587654z"  horiz-adv-x="1024" />

    
    <glyph glyph-name="-shezhi" unicode="&#58911;" d="M554.477037 146.71012299999995l-82.552099 1.390618c-5.941728 0.884938-11.377778 2.907654-16.308148 5.688889a47.495901 47.495901 0 0 0-20.985679 25.15753c-3.792593 11.377778-13.779753 30.59358-20.985679 34.639013-7.205926 4.171852-28.697284 3.286914-40.327901 0.884938-16.687407-3.539753-35.65037 3.539753-46.01679 17.319506l-2.022716 2.907655-41.465679 69.910123c-7.079506 15.928889-3.919012 35.77679 7.838024 48.292346 8.722963 9.355062 19.215802 26.168889 19.089383 33.248395-0.12642 7.205926-11.124938 24.525432-20.48 34.639012-11.504198 12.136296-15.42321 30.97284-9.860741 46.522469 2.149136 5.941728 9.734321 25.66321 17.951605 39.822223 7.458765 12.894815 18.962963 27.433086 25.157531 34.891851 10.998519 13.021235 29.582222 19.089383 45.763951 15.29679 13.021235-3.034074 33.754074-3.919012 40.075061-0.505679 6.700247 3.666173 16.055309 22.249877 19.215803 32.995556 5.05679 16.687407 20.73284 29.455802 38.052346 31.099259l2.907654 0.25284 81.79358-1.264198c17.066667-2.022716 32.742716-14.917531 38.052346-31.225679 3.666173-11.251358 13.779753-30.340741 20.859259-34.512592 7.205926-4.171852 29.076543-3.286914 40.327901-0.884939 16.813827 3.539753 35.65037-3.539753 46.016791-17.319506l2.022716-2.907654 41.465679-69.910124c7.205926-15.928889 3.919012-35.77679-7.838025-48.292345-8.722963-9.228642-19.089383-26.168889-19.089383-33.121976 0.12642-7.205926 11.124938-24.525432 20.48-34.639012 11.504198-12.136296 15.42321-30.84642 9.860741-46.522469v-0.12642l-17.825185 6.573827 17.698765-6.700247c-2.149136-5.688889-9.607901-25.41037-17.825185-39.695802-7.458765-12.894815-18.962963-27.433086-25.157531-34.891852-10.998519-13.021235-29.582222-19.089383-45.763951-15.29679-13.021235 3.034074-33.754074 3.919012-40.075061 0.379259-6.700247-3.666173-16.055309-22.249877-19.215803-32.995555-5.05679-16.687407-20.60642-29.455802-38.052345-31.09926h-2.781235z m-77.621728 39.063704l76.61037-1.137778h0.758519c1.643457 0.12642 4.171852 2.401975 4.67753 4.045432 0.505679 1.517037 12.515556 41.592099 37.040988 55.245433 23.893333 13.400494 65.485432 3.792593 67.255309 3.413333 2.528395-0.632099 6.320988 0.632099 7.458765 2.149136 9.481481 11.504198 17.319506 22.376296 21.744198 30.087901 6.953086 12.009877 13.779753 30.340741 15.17037 33.880494l17.825185-6.447408-17.825185 6.447408c0.632099 1.896296 0 5.688889-1.896296 7.585185-3.160494 3.413333-30.340741 33.501235-30.72 60.049383-0.379259 27.559506 28.065185 58.405926 29.329382 59.670123 1.137778 1.137778 1.769877 4.045432 1.137778 6.194568l-39.695802 66.62321c-1.264198 1.643457-5.05679 3.160494-7.458766 2.654815-1.769877-0.379259-42.856296-8.975802-67.128889 5.05679-23.893333 13.779753-37.420247 53.854815-37.925925 55.498271-0.758519 2.275556-3.539753 4.551111-5.941729 5.18321l-76.98963 1.137778h-0.884938c-1.517037-0.12642-4.171852-2.275556-4.677531-4.171852-0.379259-1.517037-12.389136-41.465679-37.040987-55.245432-23.893333-13.400494-65.485432-3.792593-67.255309-3.286913-2.528395 0.632099-6.320988-0.758519-7.458765-2.149136-9.481481-11.504198-17.319506-22.376296-21.744198-30.087901-6.826667-11.883457-13.779753-30.214321-15.043951-33.880494-0.632099-1.896296 0-5.815309 1.896297-7.711605 3.160494-3.413333 30.340741-33.501235 30.72-60.049383 0.379259-27.685926-28.191605-58.405926-29.329383-59.670123-1.137778-1.137778-1.769877-4.045432-1.137778-6.194568l39.695803-66.74963c1.264198-1.643457 5.05679-3.034074 7.458765-2.654815 1.769877 0.379259 42.982716 8.849383 67.255309-5.05679 23.893333-13.779753 37.420247-53.854815 37.925926-55.498271 0.379259-1.264198 1.769877-3.160494 3.919012-4.298272 0.632099-0.12642 1.390617-0.379259 2.275556-0.632099z m35.018271 100.250864c-16.560988 0-32.869136 4.551111-47.533827 13.274074-44.879012 26.927407-60.428642 86.723951-34.639012 133.37284 12.768395 23.134815 33.627654 39.442963 58.532345 46.14321 24.272593 6.573827 49.682963 2.907654 71.427161-10.11358 44.879012-26.927407 60.428642-86.723951 34.639012-133.37284-12.768395-23.134815-33.627654-39.442963-58.532345-46.14321-7.838025-2.149136-15.928889-3.160494-23.893334-3.160494z m0.12642 158.024692c-4.677531 0-9.355062-0.632099-14.032593-1.896297-14.917531-4.045432-27.433086-13.906173-35.144691-27.938765-16.055309-28.823704-6.573827-65.864691 20.985679-82.425679 12.894815-7.711605 27.812346-9.860741 42.097778-6.068148 14.917531 4.045432 27.306667 13.906173 35.144691 27.938765 16.055309 28.823704 6.573827 65.864691-20.985679 82.425679-8.596543 5.30963-18.204444 7.964444-28.065185 7.964445z"  horiz-adv-x="1024" />

    
    <glyph glyph-name="-guanyu" unicode="&#58912;" d="M512 563.2c98.816 0 179.2-80.384 179.2-179.2s-80.384-179.2-179.2-179.2-179.2 80.384-179.2 179.2 80.384 179.2 179.2 179.2m0 38.4c-120.192 0-217.6-97.408-217.6-217.6s97.408-217.6 217.6-217.6 217.6 97.408 217.6 217.6-97.408 217.6-217.6 217.6zM536.96 443.648c17.024-0.896 31.744 12.16 32.64 29.312a30.9504 30.9504 0 1 1-61.824 3.328 30.848 30.848 0 0 1 29.184-32.64zM560.768 310.784c-40.96-34.048-28.544 27.392-26.496 35.456 1.92 8.064 28.544 62.208 8.832 70.784-19.584 8.576-79.744-35.456-79.744-35.456-2.816-1.536-9.856-7.04-8.832-8.832 6.656-11.392 35.456 8.832 35.456 8.832s9.984 7.936 8.832 0c-3.456-24.192-20.992-88.576-17.664-106.24 4.48-23.552 41.472-13.568 70.784 17.664 29.312 31.36 8.832 17.792 8.832 17.792z"  horiz-adv-x="1024" />

    
    <glyph glyph-name="-law1" unicode="&#58936;" d="M747.648 507.776c0 5.888-1.024 11.904-1.664 17.92a1.536 1.536 0 0 1-1.664 1.536 31.104 31.104 0 0 0-3.456 0 116.352 116.352 0 0 0-14.976 1.536 55.68 55.68 0 0 0-31.488 17.664 52.736 52.736 0 0 0-12.8 23.04c-1.92 7.68-3.2 15.616-4.864 23.68a1.536 1.536 0 0 1-1.152 1.152l-2.048 0.768-66.688 24.32-53.504 19.584q-17.408 6.272-35.328 12.8a17.792 17.792 0 0 1-14.848 0c-7.68-3.712-16.128-6.016-24.192-8.96q-19.584-6.912-39.168-14.208l-60.672-22.272-31.232-11.52a1.408 1.408 0 0 1-1.024-1.28 121.728 121.728 0 0 0-2.048-13.696 117.76 117.76 0 0 0-6.272-19.712 49.408 49.408 0 0 0-14.08-18.048 54.4 54.4 0 0 0-24.448-12.16c-6.528-1.28-12.8-1.536-20.352-2.304a1.792 1.792 0 0 1-1.536-1.536v-5.504c-0.768-10.752-1.92-21.376-2.304-32.128a147.712 147.712 0 0 1 0-18.432c0-11.776 1.024-23.424 1.792-35.2 0-6.656 1.024-12.8 1.92-19.712 1.664-10.496 3.2-20.864 5.504-31.104 3.584-15.744 7.296-31.36 12.032-46.72s9.984-27.008 15.232-40.448a281.6 281.6 0 0 1 22.656-43.52 290.048 290.048 0 0 1 26.752-37.12 243.2 243.2 0 0 1 27.264-28.928c8.576-7.296 16.896-14.72 25.6-21.632a275.584 275.584 0 0 1 46.848-29.696c11.904-6.016 24.32-11.136 36.48-16.768a31.488 31.488 0 0 1 22.784-1.92 233.216 233.216 0 0 1 26.88 11.136A338.944 338.944 0 0 1 640 190.336c4.096 3.968 8.064 8.064 11.776 12.8s10.496 11.648 15.36 17.792a299.52 299.52 0 0 1 28.544 42.752c6.4 12.8 12.8 24.448 18.56 37.248 6.4 15.488 11.648 31.36 16.768 47.36a343.168 343.168 0 0 1 12.8 56.832c1.792 12.8 3.584 26.624 4.736 40.064 0.896 9.856 1.28 19.712 1.28 29.568s-1.664 21.888-2.176 33.024zM636.16 396.8l-1.792-1.792-41.344-40.448a30.976 30.976 0 0 0-5.376-4.608 7.296 7.296 0 0 1-2.56-8.32c1.792-9.856 3.456-19.584 5.12-29.44s3.456-18.432 4.992-27.648 3.2-19.2 4.736-28.672c0-1.664 0.64-3.328 1.024-5.12a1.664 1.664 0 0 0-2.432-1.792l-12.8 6.4-13.44 7.168-29.44 15.104-29.312 15.488a3.456 3.456 0 0 1-3.84 0l-48.384-25.6-31.616-16.512-4.736-2.56a1.664 1.664 0 0 0-2.432 1.792c1.536 9.088 2.944 17.792 4.48 26.368s3.712 20.736 5.504 31.104 3.2 18.816 4.736 28.288a51.2 51.2 0 0 0 1.28 7.68 3.584 3.584 0 0 1-1.152 4.224l-26.752 25.6-21.888 21.12-19.712 18.944a1.792 1.792 0 0 0 0.896 2.944l8.192 1.152 22.272 3.328 22.016 3.584 21.888 3.328 16.512 2.432c1.664 0 3.584 0 5.248 0.64a2.432 2.432 0 0 1 1.664 1.536l22.656 45.44L512 520.0640000000001v0.896l11.776-23.424c10.368-20.864 20.864-41.6 30.976-62.592a7.296 7.296 0 0 1 6.528-4.608l29.44-4.096c8.448-1.152 16.896-2.56 25.6-3.84l22.016-2.944c4.992-0.64 10.112-1.536 15.488-2.432a1.664 1.664 0 0 0 0.896-2.816z"  horiz-adv-x="1024" />

    


  </font>
</defs>
</svg>
